<svg width="17" height="12" viewBox="0 0 17 12" fill="none" xmlns="http://www.w3.org/2000/svg">
<path d="M13.0989 3.49994H3.48327L4.78675 2.20994C4.97555 2.02164 5.08162 1.76624 5.08162 1.49994C5.08162 1.23364 4.97555 0.978245 4.78675 0.789941C4.59794 0.601638 4.34186 0.49585 4.07485 0.49585C3.80783 0.49585 3.55176 0.601638 3.36295 0.789941L0.354928 3.78994C0.263644 3.88505 0.192089 3.99719 0.144367 4.11994C0.0440815 4.3634 0.0440815 4.63648 0.144367 4.87994C0.192089 5.00269 0.263644 5.11484 0.354928 5.20994L3.36295 8.20994C3.45616 8.30367 3.56706 8.37806 3.68924 8.42883C3.81143 8.4796 3.94248 8.50574 4.07485 8.50574C4.20721 8.50574 4.33827 8.4796 4.46045 8.42883C4.58264 8.37806 4.69353 8.30367 4.78675 8.20994C4.88073 8.11698 4.95532 8.00638 5.00622 7.88452C5.05713 7.76266 5.08334 7.63195 5.08334 7.49994C5.08334 7.36793 5.05713 7.23722 5.00622 7.11536C4.95532 6.99351 4.88073 6.8829 4.78675 6.78994L3.48327 5.49994H13.0989C13.3648 5.49994 13.6199 5.6053 13.8079 5.79283C13.9959 5.98037 14.1016 6.23472 14.1016 6.49994V10.4999C14.1016 10.7652 14.2072 11.0195 14.3953 11.207C14.5833 11.3946 14.8383 11.4999 15.1043 11.4999C15.3702 11.4999 15.6252 11.3946 15.8133 11.207C16.0013 11.0195 16.1069 10.7652 16.1069 10.4999V6.49994C16.1069 5.70429 15.79 4.94123 15.2259 4.37862C14.6618 3.81601 13.8967 3.49994 13.0989 3.49994Z" fill="#272729"/>
</svg>
