<svg width="10" height="9" viewBox="0 0 10 9" fill="none" xmlns="http://www.w3.org/2000/svg">
<path d="M5 0C2.24283 0 0 2.01874 0 4.5C0 6.98126 2.24283 9 5 9C7.75717 9 10 6.98126 10 4.5C10 2.01874 7.75717 0 5 0ZM5 8.62501C2.47273 8.62501 0.41666 6.77454 0.41666 4.5C0.41666 2.22546 2.47273 0.374994 5 0.374994C7.52727 0.374994 9.58334 2.22546 9.58334 4.5C9.58334 6.77454 7.52727 8.62501 5 8.62501Z" fill="#135BBD"/>
<path d="M4.99997 1.5C4.88481 1.5 4.79163 1.58387 4.79163 1.68751V6.18751C4.79163 6.29115 4.88481 6.37501 4.99997 6.37501C5.11513 6.37501 5.20831 6.29115 5.20831 6.18751V1.68751C5.20831 1.58387 5.11513 1.5 4.99997 1.5Z" fill="#135BBD"/>
<path d="M4.99997 7.50001C5.11504 7.50001 5.20831 7.41606 5.20831 7.31251C5.20831 7.20895 5.11504 7.125 4.99997 7.125C4.8849 7.125 4.79163 7.20895 4.79163 7.31251C4.79163 7.41606 4.8849 7.50001 4.99997 7.50001Z" fill="#135BBD"/>
</svg>
