<svg width="23" height="22" viewBox="0 0 23 22" fill="none" xmlns="http://www.w3.org/2000/svg">
<path fill-rule="evenodd" clip-rule="evenodd" d="M5.11111 0C7.49268 0 9.49381 1.64971 10.0612 3.88235H20.4444V6.47059H10.0612C9.49381 8.70324 7.49268 10.3529 5.11111 10.3529C2.28832 10.3529 0 8.03536 0 5.17647C0 2.31758 2.28832 0 5.11111 0ZM5.11111 7.76471C6.52251 7.76471 7.66667 6.60591 7.66667 5.17647C7.66667 3.74703 6.52251 2.58824 5.11111 2.58824C3.69972 2.58824 2.55556 3.74703 2.55556 5.17647C2.55556 6.60591 3.69972 7.76471 5.11111 7.76471Z" fill="white"/>
<path fill-rule="evenodd" clip-rule="evenodd" d="M17.8889 22C15.5073 22 13.5062 20.3503 12.9388 18.1176H2.55556V15.5294H12.9388C13.5062 13.2968 15.5073 11.6471 17.8889 11.6471C20.7117 11.6471 23 13.9646 23 16.8235C23 19.6824 20.7117 22 17.8889 22ZM17.8889 19.4118C19.3003 19.4118 20.4444 18.253 20.4444 16.8235C20.4444 15.3941 19.3003 14.2353 17.8889 14.2353C16.4775 14.2353 15.3333 15.3941 15.3333 16.8235C15.3333 18.253 16.4775 19.4118 17.8889 19.4118Z" fill="white"/>
</svg>
