<svg width="24" height="23" viewBox="0 0 24 23" fill="none" xmlns="http://www.w3.org/2000/svg">
<path fill-rule="evenodd" clip-rule="evenodd" d="M9.83329 5.45833C10.4316 5.45833 10.9166 5.99932 10.9166 6.66667V16.3333C10.9166 17.0007 10.4316 17.5417 9.83329 17.5417H5.49996C4.90165 17.5417 4.41663 17.0007 4.41663 16.3333V6.66667C4.41663 5.99932 4.90165 5.45833 5.49996 5.45833H9.83329ZM6.58329 7.875H8.74996V15.125H6.58329V7.875Z" fill="white"/>
<path d="M18.5 5.45833C19.0983 5.45833 19.5833 5.99932 19.5833 6.66667C19.5833 7.33401 19.0983 7.875 18.5 7.875H14.1666C13.5683 7.875 13.0833 7.33401 13.0833 6.66667C13.0833 5.99932 13.5683 5.45833 14.1666 5.45833H18.5Z" fill="white"/>
<path d="M18.5 10.2917C19.0983 10.2917 19.5833 10.8327 19.5833 11.5C19.5833 12.1673 19.0983 12.7083 18.5 12.7083H14.1666C13.5683 12.7083 13.0833 12.1673 13.0833 11.5C13.0833 10.8327 13.5683 10.2917 14.1666 10.2917H18.5Z" fill="white"/>
<path d="M19.5833 16.3333C19.5833 15.666 19.0983 15.125 18.5 15.125H14.1666C13.5683 15.125 13.0833 15.666 13.0833 16.3333C13.0833 17.0007 13.5683 17.5417 14.1666 17.5417H18.5C19.0983 17.5417 19.5833 17.0007 19.5833 16.3333Z" fill="white"/>
<path fill-rule="evenodd" clip-rule="evenodd" d="M20.6666 0.625C22.4616 0.625 23.9166 2.24797 23.9166 4.25V18.75C23.9166 20.752 22.4616 22.375 20.6666 22.375H3.33329C1.53837 22.375 0.0832939 20.752 0.0832939 18.75V4.25C0.0832939 2.24797 1.53837 0.625 3.33329 0.625H20.6666ZM3.33329 3.04167H20.6666C21.2649 3.04167 21.75 3.58266 21.75 4.25V18.75C21.75 19.4173 21.2649 19.9583 20.6666 19.9583H3.33329C2.73499 19.9583 2.24996 19.4173 2.24996 18.75V4.25C2.24996 3.58266 2.73499 3.04167 3.33329 3.04167Z" fill="white"/>
</svg>
